<svg width="840" height="840" viewBox="0 0 840 840" fill="none" xmlns="http://www.w3.org/2000/svg">
<path d="M131.564 778.163L104.046 664.005L212.429 702.62M694.515 54.2249L727.137 167.03L617.128 133.327M48.8864 152.084L160.463 115.48L130.684 226.615M798.17 683.065L686.593 719.669L716.372 608.534M352.717 258.625C337.308 277.628 312.585 324.197 319.915 375.085M319.915 375.085C321.073 383.124 323.031 391.272 325.952 399.436C325.277 390.863 323.174 382.698 319.915 375.085ZM319.915 375.085C301.192 331.352 244.302 305.798 200.541 325.589M304.158 506.284C180.888 545.665 148.032 462.654 147.012 416.226C152.706 365.727 174.255 337.477 200.541 325.589M200.541 325.589C203.855 294.364 229.218 231.913 304.158 231.913C326.335 200.494 392.711 152.234 480.804 210.543M480.804 210.543C443.971 222.118 374.664 270.378 392.099 370.815M480.804 210.543C548.48 189.275 683.068 252.137 629.539 401.725M208.953 402.107C207.678 421.95 217.441 460.263 266.688 454.768M460.207 314.199C465.173 301.199 482.438 275.889 511.775 278.642C548.447 282.083 582.062 310.375 568.31 377.283C555.03 441.897 440.724 485.228 383.808 505.746M504.518 356.637C495.477 369.764 483.362 405.755 415.132 416.663C240.556 444.574 291.363 643.386 431.936 561.949M431.936 561.949C452.818 550.097 505.431 524.328 548.825 516.069C582.649 509.632 614.987 514.94 642.413 500.566M431.936 561.949C530.107 635.739 491.145 699.971 541.568 682.001C581.906 667.625 535.965 604.643 507.952 574.948C613.764 628.475 649.618 547.038 642.413 500.566M642.413 333.698C667.752 344.658 711.936 382.483 685.96 446.103C673.738 476.039 658.971 491.889 642.413 500.566M642.413 500.566C639.994 484.961 625.911 452.985 588.935 449.926M820 420C820 640.914 640.914 820 420 820C199.086 820 20 640.914 20 420C20 199.086 199.086 20 420 20C640.914 20 820 199.086 820 420Z" stroke="url(#paint0_linear_16_3872)" stroke-width="40" stroke-linecap="round"/>
<defs>
<linearGradient id="paint0_linear_16_3872" x1="498.942" y1="278.434" x2="498.942" y2="685.05" gradientUnits="userSpaceOnUse">
<stop/>
<stop offset="1" stop-color="#6B6B6B"/>
</linearGradient>
</defs>
</svg>
